<svg xmlns:inkscape="http://www.inkscape.org/namespaces/inkscape" xmlns:sodipodi="http://sodipodi.sourceforge.net/DTD/sodipodi-0.dtd" xmlns="http://www.w3.org/2000/svg" xmlns:svg="http://www.w3.org/2000/svg" width="46.457809mm" height="8.2188559mm" viewBox="0 0 46.457809 8.2188559" id="svg5" inkscape:version="1.1 (c4e8f9e, 2021-05-24)" sodipodi:docname="stars.svg"><defs id="defs2"></defs><g inkscape:label="Layer 1" inkscape:groupmode="layer" id="layer1" transform="translate(-96.957865,-59.836098)"><g id="g845" transform="matrix(0.35277778,0,0,0.35277778,2.2067136,-62.60685)"><path fill="#f0ad4e" d="m 276.74219,354.33984 c -0.53516,0 -5.94922,0.56641 -6.875,0.61719 -0.76953,0.0664 -1.22657,0.61719 -1.28125,1.22266 v 0.22265 c 0.0273,0.32813 0.18359,0.64453 0.45703,0.89063 0.0937,0.082 0.10547,0.082 0.19531,0.14453 l 4.07031,3.625 c 0.10547,0.0781 0.11719,0.0781 0.22266,0.17187 0.23437,0.22266 0.49609,0.47266 0.75781,0.65625 -0.0937,0.21094 -1.60547,6.95704 -1.60547,7.20704 0,0.64453 0.60157,1.27343 1.27735,1.27343 0.55078,0 1.22656,-0.5 1.76172,-0.82812 l 4.09765,-2.46875 c 0.28516,-0.16797 0.5625,-0.33985 0.83594,-0.4961 l 5.6875,3.42579 c 0.57422,0.35546 1.22656,0.6289 1.86719,0 0.73047,-0.71094 0.27343,-1.58985 0.0391,-2.71875 l -1.22656,-5.39454 4.25,-3.74218 c 0.49609,-0.42188 1.44922,-1.10157 1.44922,-1.75782 0,-0.84375 -0.46875,-1.35546 -1.23829,-1.41796 l -6.91406,-0.63282 c -0.0273,-0.22265 -2.26953,-5.40625 -2.46875,-5.86718 -0.14062,-0.31641 -0.24609,-0.67188 -0.45312,-0.91797 -0.48438,-0.61719 -1.47657,-0.63282 -1.97266,-0.0274 -0.28516,0.33985 -2.16406,4.9375 -2.53125,5.80078 -0.0898,0.22657 -0.39062,0.82813 -0.40234,1.01172 z m 0,0" fill-opacity="1" fill-rule="evenodd" id="path824"></path><path fill="#f0ad4e" d="m 303.62891,354.33984 c -0.53516,0 -5.94922,0.56641 -6.875,0.61719 -0.76954,0.0664 -1.22657,0.61719 -1.27735,1.22266 v 0.22265 c 0.0274,0.32813 0.1836,0.64453 0.45703,0.89063 0.0899,0.082 0.10157,0.082 0.19532,0.14453 l 4.07031,3.625 c 0.10547,0.0781 0.11719,0.0781 0.22265,0.17187 0.23438,0.22266 0.4961,0.47266 0.75391,0.65625 -0.0898,0.21094 -1.60156,6.95704 -1.60156,7.20704 0,0.64453 0.59765,1.27343 1.27734,1.27343 0.54688,0 1.22656,-0.5 1.76172,-0.82812 l 4.09766,-2.46875 c 0.28515,-0.16797 0.54687,-0.33985 0.83203,-0.4961 l 5.6875,3.42579 c 0.57422,0.35546 1.22656,0.6289 1.86719,0 0.73046,-0.71094 0.26171,-1.58985 0.0391,-2.71875 l -1.22656,-5.39454 4.2539,-3.74218 c 0.4961,-0.42188 1.44922,-1.10157 1.44922,-1.75782 0,-0.84375 -0.47266,-1.35546 -1.24219,-1.41796 l -6.91406,-0.63282 c -0.0234,-0.22265 -2.26953,-5.40625 -2.46484,-5.86718 -0.14453,-0.31641 -0.2461,-0.67188 -0.45703,-0.91797 -0.48047,-0.61719 -1.47266,-0.63282 -1.96875,-0.0274 -0.28907,0.33985 -2.16797,4.9375 -2.53125,5.80078 -0.0937,0.22657 -0.39063,0.82813 -0.40625,1.01172 z m 0,0" fill-opacity="1" fill-rule="evenodd" id="path826"></path><path fill="#f0ad4e" d="m 330.51953,354.33984 c -0.53516,0 -5.94922,0.56641 -6.875,0.61719 -0.76953,0.0664 -1.22656,0.61719 -1.28125,1.22266 v 0.22265 c 0.0273,0.32813 0.18359,0.64453 0.45703,0.89063 0.0937,0.082 0.10547,0.082 0.19531,0.14453 l 4.07032,3.625 c 0.10547,0.0781 0.12109,0.0781 0.21093,0.17187 0.2461,0.22266 0.50782,0.47266 0.76954,0.65625 -0.0899,0.21094 -1.60547,6.95704 -1.60547,7.20704 0,0.64453 0.60156,1.27343 1.27734,1.27343 0.55078,0 1.22656,-0.5 1.76172,-0.82812 l 4.09766,-2.46875 c 0.28906,-0.16797 0.5625,-0.33985 0.83593,-0.4961 l 5.6875,3.42579 c 0.57422,0.35546 1.22657,0.6289 1.86719,0 0.73047,-0.71094 0.27344,-1.58985 0.0391,-2.71875 l -1.22656,-5.39454 4.25391,-3.74218 c 0.49218,-0.42188 1.44531,-1.10157 1.44531,-1.75782 0,-0.84375 -0.46875,-1.35546 -1.23828,-1.41796 l -6.91406,-0.63282 c -0.0274,-0.22265 -2.26954,-5.40625 -2.46485,-5.86718 -0.14453,-0.31641 -0.25,-0.67188 -0.45703,-0.91797 -0.48437,-0.61719 -1.47656,-0.63282 -1.97266,-0.0274 -0.28515,0.33985 -2.16406,4.9375 -2.53125,5.80078 -0.0898,0.22657 -0.39062,0.82813 -0.40234,1.01172 z m 0,0" fill-opacity="1" fill-rule="evenodd" id="path828"></path><path fill="#f0ad4e" d="m 357.40625,354.33984 c -0.53516,0 -5.94922,0.56641 -6.875,0.61719 -0.76953,0.0664 -1.22656,0.61719 -1.27734,1.22266 v 0.22265 c 0.0273,0.32813 0.18359,0.64453 0.45703,0.89063 0.0898,0.082 0.10547,0.082 0.19531,0.14453 l 4.07031,3.625 c 0.10547,0.0781 0.11719,0.0781 0.22266,0.17187 0.23437,0.22266 0.49609,0.47266 0.75781,0.65625 -0.10547,0.21094 -1.60547,6.95704 -1.60547,7.20704 0,0.64453 0.59766,1.27343 1.27735,1.27343 0.54687,0 1.22656,-0.5 1.76171,-0.82812 l 4.09766,-2.46875 c 0.28516,-0.16797 0.54688,-0.33985 0.83203,-0.4961 l 5.69141,3.42579 c 0.57422,0.35546 1.22656,0.6289 1.86328,0 0.73047,-0.71094 0.26172,-1.58985 0.0391,-2.71875 l -1.22656,-5.39454 4.25391,-3.74218 c 0.49609,-0.42188 1.44921,-1.10157 1.44921,-1.75782 0,-0.84375 -0.46875,-1.35546 -1.23828,-1.41796 l -6.91797,-0.63282 c -0.0234,-0.22265 -2.26953,-5.40625 -2.46484,-5.86718 -0.14453,-0.31641 -0.24609,-0.67188 -0.45703,-0.91797 -0.48047,-0.61719 -1.47266,-0.63282 -1.96875,-0.0274 -0.28906,0.33985 -2.16797,4.9375 -2.53125,5.80078 -0.0898,0.22657 -0.39063,0.82813 -0.40625,1.01172 z m 0,0" fill-opacity="1" fill-rule="evenodd" id="path830"></path><path fill="#f0ad4e" d="m 384.29687,354.33984 c -0.53515,0 -5.94921,0.56641 -6.875,0.61719 -0.76953,0.0664 -1.22656,0.61719 -1.27734,1.22266 v 0.22265 c 0.0234,0.32813 0.17969,0.64453 0.45313,0.89063 0.0937,0.082 0.10546,0.082 0.19921,0.14453 l 4.07032,3.625 c 0.10156,0.0781 0.11718,0.0781 0.20703,0.17187 0.24609,0.22266 0.50781,0.47266 0.76953,0.65625 -0.0898,0.21094 -1.60547,6.95704 -1.60547,7.20704 0,0.64453 0.60156,1.27343 1.28125,1.27343 0.54688,0 1.22656,-0.5 1.75781,-0.82812 l 4.09766,-2.46875 c 0.28906,-0.16797 0.54687,-0.33985 0.83594,-0.4961 l 5.6875,3.42579 c 0.57422,0.35546 1.22656,0.6289 1.86718,0 0.73047,-0.71094 0.26172,-1.58985 0.0391,-2.71875 l -1.22657,-5.39454 4.25391,-3.74218 c 0.49609,-0.42188 1.44531,-1.10157 1.44531,-1.75782 0,-0.84375 -0.46875,-1.35546 -1.23828,-1.41796 l -6.91406,-0.63282 c -0.0273,-0.22265 -2.26953,-5.40625 -2.46484,-5.86718 -0.14454,-0.31641 -0.25,-0.67188 -0.45704,-0.91797 -0.48437,-0.61719 -1.47656,-0.63282 -1.97265,-0.0274 -0.28516,0.33985 -2.16406,4.9375 -2.52735,5.80078 -0.0937,0.22657 -0.39453,0.82813 -0.40625,1.01172 z m 0,0" fill-opacity="1" fill-rule="evenodd" id="path832"></path></g></g></svg>